<svg xmlns="http://www.w3.org/2000/svg" width="135.741" height="79.181"><g data-name="Calque 2"><g data-name="Calque 1"><g data-name="Groupe 1" fill="#005e5d"><path data-name="Tracé 1" d="M109.163 16.494a1.793 1.793 0 00.564-.625 2.813 2.813 0 000-2.882q-.846-1.636-2.487-.434a3.217 3.217 0 01-.308 1.5 3.473 3.473 0 00-.315 1.573q.571 1.086 2.546.868z"/><path data-name="Tracé 2" d="M103.173 38.761a4.141 4.141 0 002.513 2.257 3.433 3.433 0 002.843-.651 15.882 15.882 0 002.6-2.318 32.577 32.577 0 002.292-3.038 7.813 7.813 0 001.024-2.17 20.043 20.043 0 00.69 4.054q1.871 6.511 7.744 4.011c.265-.3.69-.742 1.272-1.328s1.037-1.063 1.359-1.441a5.9 5.9 0 00.9-1.636 6.268 6.268 0 00.434-2.318 2.218 2.218 0 00-1.736.252 3.472 3.472 0 00-1.185 1.359q-.456.868-.964 1.736a3.958 3.958 0 01-1.415 1.372 3.151 3.151 0 01-2.2.313 5.178 5.178 0 01-.964-1.84 9.325 9.325 0 01-.365-2.57c-.022-.981 0-1.914.026-2.8a25.277 25.277 0 01.369-3.134q.313-1.81.508-2.913c.135-.734.33-1.675.595-2.826a19.037 19.037 0 00.434-2.235c.113-.035.642-.234 1.584-.59s1.61-.6 2.005-.738 1.046-.33 1.949-.59a10.925 10.925 0 012.235-.434c.582-.035 1.25-.065 2.005-.082a4.536 4.536 0 012.005.369 5.859 5.859 0 011.61 1.072q2.661-.907 2.149-3.038a5.889 5.889 0 00-4.21-2.01 14.559 14.559 0 00-5.313.434 24.485 24.485 0 00-4.605 1.78c0 .113-.039.152-.113.113a.1.1 0 01.113-.113 14.671 14.671 0 00.846-5.764 3.989 3.989 0 00-3.5-.625q-1.471 6.563-2.036 8.312a5.86 5.86 0 01-2.743-.343 5.552 5.552 0 00-2.4-.417 2.674 2.674 0 00-.113.708 1.772 1.772 0 00.082.564 3.4 3.4 0 00.2.482.842.842 0 00.369.369c.169.091.308.178.434.252a1.61 1.61 0 00.538.2l.595.139a5.131 5.131 0 00.647.113l.651.087a5.782 5.782 0 00.621.026 4.375 4.375 0 00.569.056 19.409 19.409 0 00-.964 3.451 36.18 36.18 0 00-.595 4.219c-.521.968-1.267 2.309-2.327 4.141a18.183 18.183 0 01-5.092 5.43 4.02 4.02 0 01-1.919-2.144 4.163 4.163 0 010-2.717 19.589 19.589 0 011.211-2.908c.512-1 1-1.953 1.471-2.856a11.316 11.316 0 00.99-2.513 1.914 1.914 0 00-.434-1.9 4.3 4.3 0 00-2.57-.959c-.191.53-.595 1.5-1.215 2.913s-1.068 2.513-1.328 3.308-.547 1.806-.868 3.038c-.03.13-.048.256-.074.386-.122.221-.868 4.523-2.452 6.224a2.635 2.635 0 01-1.6.868q-4.974-3.394-.226-15.036a2.018 2.018 0 00-1.441-.99 2.661 2.661 0 00-1.554.308 10.969 10.969 0 01-1.892.764 5.252 5.252 0 01-2.17.256 1.584 1.584 0 00-1.129-.907 1.641 1.641 0 00-1.528.174 13.456 13.456 0 01-.59 4.341c-.434 1.4-2.513 7.066-3.98 8.8a1.443 1.443 0 01.165-.161c-.143.152-.282.3-.4.434a2.6 2.6 0 01-1.415.868 9.826 9.826 0 001.645-8.794 8.309 8.309 0 00-3.907-5.539q-3.558-1.928-6.944 2.142a2.508 2.508 0 01.2-.59 1.793 1.793 0 00.143-.933c-.039 0-.122-.065-.256-.2a2.039 2.039 0 00-.282-.252l-.282-.2a1.649 1.649 0 00-.339-.2c-.1-.035-.208-.074-.339-.113l-.434-.112a1.641 1.641 0 00-.482.226 2 2 0 01-.434.23 19.966 19.966 0 01-.916 4.775 40.726 40.726 0 01-1.3 2.991c-.708 1.3-1.489 2.574-1.736 3.151a8.9 8.9 0 01-3.907 3.16 21.7 21.7 0 00-.681-8 13.491 13.491 0 00-3.559-6.216 6.849 6.849 0 00-5.821-2.005 36.955 36.955 0 01-3.394 6.667 26.456 26.456 0 00-3.234 6.91c.191-.074.386.056.595.395s.347.508.434.508a8.3 8.3 0 002.619-2.262 16.929 16.929 0 001.923-2.939c.469-.942 1.037-2.127 1.693-3.559s1.142-2.448 1.445-3.038a16.26 16.26 0 012.17 3.077 24.473 24.473 0 011.736 3.907 9.259 9.259 0 01.434 4.341 6.42 6.42 0 01-1.836 3.733 8.95 8.95 0 00-.907-.143 10.079 10.079 0 01-1.129-.2 3.993 3.993 0 01-.964-.4q-3.216-3.216-4.067-.959a6.7 6.7 0 003.308 3.308 9.115 9.115 0 004.918.868 17.757 17.757 0 005.078-1.289 10.157 10.157 0 002.873-1.78A101.364 101.364 0 0164.5 50.2c-1.059 5.044-1.819 5.847-3.941 10.339-1.239 1.796-3.759 7.144-13.844 12.331A23.248 23.248 0 0136 75.366a28.848 28.848 0 01-11.86-2.744c-6.858-3.038-11.624-7.635-14.163-13.668C6.452 50.49 8.6 42.125 16.37 34.1l1.007-1.068.708 1.3c2.266 4.119 5.013 6.472 8.173 7.006A11.286 11.286 0 0037.04 37.26c2.713-3.234 3.581-7.813 2.105-11.2-1.194-2.73-4.84-5.5-9.523-5.5a13.712 13.712 0 00-7.357 2.292l-1.593 1.024-.078-1.879a15.748 15.748 0 013.069-9.2c2.17-2.943 4.084-5.083 6.967-6.654a16.716 16.716 0 017.887-2.17h.1A9.282 9.282 0 0143.942 5.7c2.253 1.78 1.819 3.772 1.532 5.092a7.657 7.657 0 01-1.6 3.216c-.673.742-1.7 1.3-2.17 2.075a2.17 2.17 0 00.078 2.509 2.014 2.014 0 001.6.868 9.88 9.88 0 005.9-5.7 9.245 9.245 0 00.518-6.889C47.892 2.3 44.124 0 38.59 0c-.434 0-.894 0-1.359.043A24.478 24.478 0 0021.31 7.661c-5.725 5.725-7.692 11.871-6.007 18.747l.152.634-.486.434c-2.448 2.17-4.341 4.141-5.73 5.6A34.978 34.978 0 00.883 47.091c-3.038 11.78 2.548 18.665 4.935 21.586a24.789 24.789 0 009.549 7.24A41.183 41.183 0 0028 79a45.042 45.042 0 0013.4-.8 32.556 32.556 0 0018.176-10.578.105.105 0 00.087-.039 25.943 25.943 0 005.382-8.5 59.5 59.5 0 002.743-9.089c.378-2.357.838-4.853 1.385-7.457s1.137-4.953 1.78-7.066a17.662 17.662 0 013.038-5.821 12.366 12.366 0 015.209-3.906 8.394 8.394 0 011.133 3.956 11.694 11.694 0 01-.564 4.3 12.414 12.414 0 01-2.005 3.763 6.511 6.511 0 01-3.221 2.287 7.379 7.379 0 01-4.21-.026 6.281 6.281 0 003.446 2.63 8.5 8.5 0 004.549.169 16.663 16.663 0 004.466-1.736 10.075 10.075 0 003.42-3.038 31.339 31.339 0 003.529-7.3c.061-.156.126-.308.174-.434.286-.751.673-1.923 1.159-3.5a3.371 3.371 0 002.261-.113 16.9 16.9 0 00-.621 1.354 10.431 10.431 0 00.677 9.232q1.923 3.394 4.861 3.729a4.892 4.892 0 004.861-2.4l.058.144zM22 28.67a10.58 10.58 0 017.262-3.407 8.369 8.369 0 012.869.521 3.147 3.147 0 011.892 1.888 7.15 7.15 0 01-.673 5.421c-1.072 2-2.7 2.9-5.265 2.9h-.126c-4.51-.048-6.138-6.072-6.2-6.329l-.148-.556z"/><path data-name="Tracé 3" d="M73.371 61.45h-.339v.621c1.207 0 2.353-.082 3.516-.082 1.081 0 2.14.082 3.221.082v-.634h-.337c-1.081 0-2.01-.043-2.01-1.736V48.055h.61c2.17 0 3.2 1.337 3.2 3.373s-.781 3.62-2.5 3.62h-.435v.638c.486 0 1.037 0 1.693-.043a4.235 4.235 0 004.089-4.3c0-3.097-2.097-4.052-4.979-4.052-.95 0-1.992.087-3.095.087s-2.2-.087-2.964-.087v.638h.251c1.02 0 1.424.256 1.424 1.675v10.127c-.022 1.697-.725 1.719-1.345 1.719z"/><path data-name="Tracé 4" d="M100.209 61.45h-.13a1.346 1.346 0 01-1.4-.868c-.273-.634-.529-1.419-.786-2.17L93.989 47.33c-.065-.169-.126-.36-.191-.53-.044-.065-.082-.065-.148-.065a.486.486 0 00-.169.043 11.042 11.042 0 01-1.927.912 18.324 18.324 0 01-.777 2.661l-3.39 9.723a1.923 1.923 0 01-1.845 1.38h-.126v.616a40.634 40.634 0 012.287-.083c.868 0 1.736.039 2.565.083v-.635h-.234c-.7 0-1.589-.109-1.589-.742a8.788 8.788 0 01.464-1.654l.683-2.204h4.809l.825 2.461a6.813 6.813 0 01.434 1.524c0 .53-.825.616-1.3.616h-.23v.634c1.081-.043 2.14-.083 3.177-.083s1.971.039 2.926.083zm-10.218-5.786l1.971-6h.043l1.949 6z"/><path data-name="Tracé 5" d="M108.961 55.217a58.877 58.877 0 004.4 6.854c.66 0 1.337-.082 1.992-.082s1.38.082 2.079.082v-.634a2.378 2.378 0 01-2.057-1.272l-3.62-5.426c1.675-.655 2.947-1.823 2.947-3.729 0-3.007-2.374-3.728-5.041-3.728-1.127 0-2.142.082-3.414.082s-2.605-.082-3.286-.082v.634h.382c.655 0 1.506.065 1.506 1.61v10.765c0 .786-.721 1.146-1.506 1.146h-.382v.634c1.059 0 2.057-.082 3.073-.082 1.207 0 2.439.082 3.646.082v-.634h-.382c-.977 0-1.736-.065-1.736-1.7v-4.52zm-1.395-7.076a10.162 10.162 0 011.207-.086 2.9 2.9 0 013.095 3.094c0 2.5-1.146 3.308-3.264 3.308h-1.038z"/><path data-name="Tracé 6" d="M134.34 58.016l-.59-.087a4.337 4.337 0 01-4.338 3.545c-4.006 0-5.808-3.581-5.808-7.123 0-3.707 1.823-6.441 5.3-6.441 3.177 0 4.15 1.7 4.744 3.75l.638-.082a24.329 24.329 0 01-.169-3.542c-1.992-.298-2.799-1.062-5.277-1.062-4.367 0-8.2 2.756-8.2 7.5 0 5.317 3.538 7.922 8.3 7.922a12.388 12.388 0 004.853-.951 24.6 24.6 0 01.547-3.429z"/><path data-name="Tracé 7" d="M78.276 66.528v.317h.222a.868.868 0 01.9.968v3.876l-4.595-5.174c-.305 0-.605.043-.916.043-.395 0-.798-.043-1.189-.043v.33h.135a.925.925 0 01.938.929v4.341c0 .825-.217 1.3-.929 1.3h-.144v.31c.464 0 .942-.039 1.406-.039s.868.039 1.328.039v-.31h-.173c-.794 0-.972-.308-.972-1.211v-4.252l5.321 5.929h.39a6.7 6.7 0 01-.06-1.042v-4.692c0-1.228.486-1.3.92-1.3h.156v-.315c-.434 0-.868.043-1.272.043-.507-.004-.98-.047-1.466-.047z"/><path data-name="Tracé 8" d="M88.397 73.018c-.135-.313-.26-.695-.382-1.055l-1.9-5.4-.092-.26a.074.074 0 00-.074-.035.2.2 0 00-.082 0 5.368 5.368 0 01-.942.434 8.428 8.428 0 01-.382 1.28l-1.649 4.745a.938.938 0 01-.9.673h-.064v.308c.373 0 .747-.04 1.116-.04s.838.022 1.25.039V73.4h-.113c-.339 0-.773-.052-.773-.36a4.087 4.087 0 01.226-.807l.33-1.076h2.344l.4 1.2a3.4 3.4 0 01.208.742c0 .256-.4.3-.642.3h-.11v.309c.525 0 1.042-.039 1.55-.039s.959.022 1.424.039V73.4h-.061a.66.66 0 01-.682-.382zm-4.236-2.409l.964-2.921.951 2.921z"/><path data-name="Tracé 9" d="M96.003 66.528h-5.33c-.278 0-.538 0-.621-.3h-.247a6.584 6.584 0 01-.061.868c-.035.3-.082.586-.126.868h.312c.152-.753.183-.941.96-.941h1.693v5.517c0 .816-.291.868-.868.868h-.197v.303c.4 0 1.129-.039 1.736-.039s1.3.039 1.684.039v-.3h-.2c-.495 0-.868-.1-.868-.868v-5.499h1.695c.69 0 .742.612.764.994l.308-.113v-.837a6.173 6.173 0 01.112-.838l-.247-.039c.035.308-.221.317-.499.317z"/><path data-name="Tracé 10" d="M98.069 66.528v.317h.143c.374 0 .764.052.764.583v5.416c0 .538-.391.59-.764.59h-.143v.308c.4 0 1.011-.039 1.519-.039s1.137.039 1.632.039v-.308h-.151c-.369 0-.764-.052-.764-.59v-5.416c0-.534.4-.586.764-.586h.148v-.314c-.483 0-1.104.043-1.62.043s-1.128-.043-1.528-.043z"/><path data-name="Tracé 11" d="M106.58 66.376a3.755 3.755 0 00-3.811 3.811 3.649 3.649 0 003.864 3.707 3.785 3.785 0 003.906-3.954c-.004-2.201-1.758-3.564-3.959-3.564zm.156 7.062c-1.676 0-2.522-1.767-2.522-3.616 0-1.385.538-3 2.344-3 1.711.006 2.531 1.833 2.531 3.344s-.351 3.273-2.352 3.273z"/><path data-name="Tracé 12" d="M117.684 66.528v.317h.23a.868.868 0 01.9.968v3.876h-.025l-4.595-5.174c-.305 0-.605.043-.92.043-.391 0-.794-.043-1.185-.043v.33h.13a.925.925 0 01.942.929v4.341c0 .825-.217 1.3-.929 1.3h-.143v.31c.464 0 .938-.039 1.4-.039s.89.039 1.333.039v-.31h-.172c-.794 0-.972-.308-.972-1.211v-4.252l5.317 5.929h.386a6.684 6.684 0 01-.061-1.042v-4.692c0-1.228.482-1.3.916-1.3h.153v-.315c-.434 0-.868.043-1.272.043s-.947-.047-1.433-.047z"/><path data-name="Tracé 13" d="M127.81 73.018c-.135-.313-.26-.695-.382-1.055l-1.9-5.4-.1-.256c.004-.039-.035-.039-.066-.039a.2.2 0 00-.082 0 5.683 5.683 0 01-.942.434 8.428 8.428 0 01-.382 1.28l-1.654 4.745a.933.933 0 01-.9.673h-.059v.308c.373 0 .742-.04 1.116-.04s.838.022 1.25.039V73.4h-.113c-.343 0-.777-.052-.777-.36a4.169 4.169 0 01.23-.807l.33-1.076h2.344l.4 1.2a3.322 3.322 0 01.2.742c0 .256-.4.3-.638.3h-.106v.309c.525 0 1.042-.039 1.55-.039s.959.022 1.424.039V73.4h-.057a.656.656 0 01-.686-.382zm-4.236-2.409l.959-2.922h.022l.951 2.921z"/><path data-name="Tracé 14" d="M135.441 71.984a2.3 2.3 0 01-.321.742 1.45 1.45 0 01-.99.556 7.605 7.605 0 01-1.363 0c-.33-.039-.621-.165-.621-.577v-5.309c0-.547.308-.556.7-.556h.261v-.312c-.526 0-1.043.043-1.568.043s-1.085-.043-1.632-.043v.317h.143c.373 0 .773.052.773.583v5.311c0 .642-.4.695-.773.695h-.143v.308c.907 0 1.814-.039 2.726-.039s1.819.039 2.726.039c.126-.586.269-1.168.382-1.736z"/></g></g></g></svg>